<svg xmlns="http://www.w3.org/2000/svg" xmlns:xlink="http://www.w3.org/1999/xlink" width="121" height="122" viewBox="0 0 121 122"><defs><path id="pjdua" d="M189.31 207.36l-24.69 24.49a41.14 41.14 0 0 1-10.8 7.94 23.37 23.37 0 0 1-10.24 2.54c-2.67 0-5.25-.54-7.77-1.65a24.52 24.52 0 0 1-7.33-5.14 4.56 4.56 0 0 1-.03-6.49 4.57 4.57 0 0 1 6.5-.02c.6.6 1.6 1.61 3.05 2.5 1.43.88 3.38 1.61 5.68 1.6 2.06 0 4.32-.57 6.7-1.82a33.2 33.2 0 0 0 7.78-5.98l24.68-24.49a16.72 16.72 0 0 0 4.98-11.92 16.7 16.7 0 0 0-4.98-11.92 21.4 21.4 0 0 0-5.75-4.1 16.05 16.05 0 0 0-6.93-1.67c-1.72 0-3.47.32-5.16 1.03a14.8 14.8 0 0 0-4.74 3.21l-7.83 7.77a4.57 4.57 0 0 1-6.5-.02 4.56 4.56 0 0 1 .02-6.5l7.84-7.77A23.06 23.06 0 0 1 170.2 162c6.51 0 13.32 2.76 19.1 8.48a25.78 25.78 0 0 1 7.69 18.44c0 6.99-2.72 13.5-7.69 18.44zm-35.52-38.4l.02-.02-.02.01zm29.05 8.04zm-59.08 95.4a26.23 26.23 0 0 1-18.54 7.6 26.22 26.22 0 0 1-18.53-7.6A25.76 25.76 0 0 1 79 253.97c0-6.99 2.72-13.5 7.69-18.44l23.13-22.95a44.37 44.37 0 0 1 11.84-8.63 26.2 26.2 0 0 1 11.34-2.8c5.36.03 10.25 1.98 14.52 6.2l.04.04-.04-.04a4.56 4.56 0 0 1 .03 6.49 4.57 4.57 0 0 1-6.5.02 12.33 12.33 0 0 0-4-2.7 11.43 11.43 0 0 0-4.36-.85c-1.77 0-3.45.38-5.03.95a26 26 0 0 0-6.42 3.56 45.06 45.06 0 0 0-4.95 4.27v.01l-23.13 22.95a16.73 16.73 0 0 0-4.98 11.92 16.7 16.7 0 0 0 4.98 11.92 17.08 17.08 0 0 0 12.06 4.95 17.1 17.1 0 0 0 12.06-4.95l6.3-6.25a4.57 4.57 0 0 1 6.49.03 4.56 4.56 0 0 1-.02 6.49z"/><linearGradient id="pjdub" x1="138" x2="138" y1="280" y2="162" gradientUnits="userSpaceOnUse"><stop offset="0" stop-color="#b80fff"/><stop offset="1" stop-color="#3c7cff"/></linearGradient></defs><g><g transform="translate(-77 -160)"><use xlink:href="#pjdua"/><use fill="url(#pjdub)" xlink:href="#pjdua"/></g></g></svg>