<?xml version="1.0" encoding="utf-8"?>
<!-- Generator: Adobe Illustrator 23.0.1, SVG Export Plug-In . SVG Version: 6.00 Build 0)  -->
<svg version="1.1" id="Like_" xmlns="http://www.w3.org/2000/svg" xmlns:xlink="http://www.w3.org/1999/xlink" x="0px" y="0px"
	 viewBox="0 0 50 50" style="enable-background:new 0 0 50 50;" xml:space="preserve">
<style type="text/css">
	.st0{fill:#fff;}
	.st1{fill:url(#SVGID_1_);}
	.st2{fill:url(#SVGID_2_);}
	.st3{fill:url(#SVGID_3_);}
	.st4{fill:url(#SVGID_4_);}
	.st5{fill:url(#SVGID_5_);}
</style>
<g>
	<circle id="circle" class="st0" cx="25" cy="25" r="24"/>
</g>
<g>
	
		<linearGradient id="SVGID_1_" gradientUnits="userSpaceOnUse" x1="0" y1="816.9999" x2="50" y2="816.9999" gradientTransform="matrix(1 0 0 1 0 -792)">
		<stop  offset="0" style="stop-color:#B80FFF"/>
		<stop  offset="1" style="stop-color:#3C7CFF"/>
	</linearGradient>
	<path class="st1" d="M25,1v1c6.4,0,12.1,2.6,16.3,6.7C45.4,12.9,48,18.6,48,25s-2.6,12.1-6.7,16.3C37.1,45.4,31.4,48,25,48
		s-12.1-2.6-16.3-6.7C4.6,37.1,2,31.4,2,25S4.6,12.9,8.7,8.7C12.9,4.6,18.6,2,25,2V1V0C11.2,0,0,11.2,0,25s11.2,25,25,25
		s25-11.2,25-25S38.8,0,25,0V1z"/>
</g>
<g>
	
		<linearGradient id="SVGID_2_" gradientUnits="userSpaceOnUse" x1="17.8277" y1="33.2898" x2="31.3628" y2="33.2898" gradientTransform="matrix(1 0 0 -1 0 49.8898)">
		<stop  offset="0" style="stop-color:#B80FFF"/>
		<stop  offset="1" style="stop-color:#3C7CFF"/>
	</linearGradient>
	<path class="st2" d="M24.6,23.4c3.7,0,6.8-3,6.8-6.8c0-3.7-3-6.8-6.8-6.8c-3.7,0-6.8,3-6.8,6.8C17.8,20.4,20.9,23.4,24.6,23.4z
		 M24.6,11.5c2.8,0,5.1,2.3,5.1,5.1s-2.3,5.1-5.1,5.1s-5.1-2.3-5.1-5.1S21.8,11.5,24.6,11.5z"/>
	
		<linearGradient id="SVGID_3_" gradientUnits="userSpaceOnUse" x1="28.6916" y1="23.8898" x2="36.5013" y2="23.8898" gradientTransform="matrix(1 0 0 -1 0 49.8898)">
		<stop  offset="0" style="stop-color:#B80FFF"/>
		<stop  offset="1" style="stop-color:#3C7CFF"/>
	</linearGradient>
	<path class="st3" d="M34.9,28.3c0.6,0.1,1.1,0.2,1.6,0.3v-0.3c0-2.8-4.2-4.3-6.3-4.9c-0.5,0.5-1.5,1.3-1.5,1.3
		C30.8,25.2,34.8,26.6,34.9,28.3z"/>
	
		<linearGradient id="SVGID_4_" gradientUnits="userSpaceOnUse" x1="12.6889" y1="20.0398" x2="26.3502" y2="20.0398" gradientTransform="matrix(1 0 0 -1 0 49.8898)">
		<stop  offset="0" style="stop-color:#B80FFF"/>
		<stop  offset="1" style="stop-color:#3C7CFF"/>
	</linearGradient>
	<path class="st4" d="M26.2,34.8H15.1c-0.5-0.1-0.7-0.1-0.8-0.8v-5.7c0-1.7,4.2-3.1,6.3-3.6l0,0c-0.6-0.4-1.1-0.8-1.6-1.3
		c-2.2,0.6-6.4,2.1-6.4,4.9V34v0.1c0.2,1.4,0.9,2.1,2.3,2.2h11.4c0-0.3-0.1-0.8-0.1-1.2C26.2,35,26.2,34.9,26.2,34.8z"/>
	
		<linearGradient id="SVGID_5_" gradientUnits="userSpaceOnUse" x1="29.443" y1="15.0898" x2="37.6611" y2="15.0898" gradientTransform="matrix(1 0 0 -1 0 49.8898)">
		<stop  offset="0" style="stop-color:#B80FFF"/>
		<stop  offset="1" style="stop-color:#3C7CFF"/>
	</linearGradient>
	<path class="st5" d="M37.2,33.7h-2.5v-2.5c0-0.3-0.2-0.5-0.5-0.5H33c-0.3,0-0.5,0.2-0.5,0.5v2.5H30c-0.3,0-0.5,0.2-0.5,0.5v1.2
		c0,0.3,0.2,0.5,0.5,0.5h2.5v2.5c0,0.3,0.2,0.5,0.5,0.5h1.2c0.3,0,0.5-0.2,0.5-0.5v-2.5h2.5c0.3,0,0.5-0.2,0.5-0.5v-1.2
		C37.7,33.9,37.4,33.7,37.2,33.7z"/>
</g>
</svg>
