<?xml version="1.0" encoding="utf-8"?>
<!-- Generator: Adobe Illustrator 23.0.1, SVG Export Plug-In . SVG Version: 6.00 Build 0)  -->
<svg version="1.1" id="Like_" xmlns="http://www.w3.org/2000/svg" xmlns:xlink="http://www.w3.org/1999/xlink" x="0px" y="0px"
	 viewBox="0 0 50 50" style="enable-background:new 0 0 50 50;" xml:space="preserve">
<style type="text/css">
	.st0{fill:#fff;}
	.st1{fill:url(#SVGID_1_);}
	.st2{fill:url(#SVGID_2_);}
	.st3{fill:url(#SVGID_3_);}
	.st4{fill:url(#SVGID_4_);}
</style>
<g>
	<circle id="circle" class="st0" cx="25" cy="25" r="24"/>
</g>
<g>
	
		<linearGradient id="SVGID_1_" gradientUnits="userSpaceOnUse" x1="0" y1="24.8898" x2="50" y2="24.8898" gradientTransform="matrix(1 0 0 -1 0 49.8898)">
		<stop  offset="0" style="stop-color:#B80FFF"/>
		<stop  offset="1" style="stop-color:#3C7CFF"/>
	</linearGradient>
	<path class="st1" d="M25,1v1c6.4,0,12.1,2.6,16.3,6.7C45.4,12.9,48,18.6,48,25s-2.6,12.1-6.7,16.3C37.1,45.4,31.4,48,25,48
		s-12.1-2.6-16.3-6.7C4.6,37.1,2,31.4,2,25S4.6,12.9,8.7,8.7C12.9,4.6,18.6,2,25,2V1V0C11.2,0,0,11.2,0,25s11.2,25,25,25
		s25-11.2,25-25S38.8,0,25,0V1z"/>
</g>
<g>
	<linearGradient id="SVGID_2_" gradientUnits="userSpaceOnUse" x1="10.1953" y1="24.4847" x2="38.7588" y2="24.4847">
		<stop  offset="0" style="stop-color:#B80FFF"/>
		<stop  offset="1" style="stop-color:#3C7CFF"/>
	</linearGradient>
	<path class="st2" d="M28.5,25.1c-0.2,0-0.4,0.1-0.6,0.2l-2.5,2.4l-4-5.4C21.3,22.1,21,22,20.8,22c-0.3,0-0.5,0.1-0.6,0.3l-7.9,11.5
		c-0.3-0.1-0.5-0.4-0.5-0.7V15.9c0-0.5,0.4-0.8,0.8-0.8h23.7c0.4,0,0.8,0.4,0.8,0.8v10.8c0,0.2,0.1,0.3,0.3,0.3h1
		c0.2,0,0.3-0.1,0.3-0.3V15.9c0-1.3-1.1-2.4-2.4-2.4H12.6c-1.3,0-2.4,1.1-2.4,2.4v17.2c0,1.3,1.1,2.4,2.4,2.4H30
		c0.2,0,0.3-0.1,0.3-0.3v-1c0-0.2-0.1-0.3-0.3-0.3H14.1l6.7-9.7l3.8,5.3c0.1,0.2,0.3,0.3,0.6,0.3c0.2,0,0.5-0.1,0.6-0.2l2.5-2.5
		l3,3.3c0.1,0.1,0.3,0.1,0.4,0l0.8-0.7c0.1-0.1,0.1-0.3,0-0.4L29,25.4C28.9,25.2,28.7,25.1,28.5,25.1z"/>
	<linearGradient id="SVGID_3_" gradientUnits="userSpaceOnUse" x1="27.8477" y1="20.7713" x2="33.5381" y2="20.7713">
		<stop  offset="0" style="stop-color:#B80FFF"/>
		<stop  offset="1" style="stop-color:#3C7CFF"/>
	</linearGradient>
	<path class="st3" d="M30.1,18c-1.1,0.2-2,1.1-2.2,2.2c-0.4,2,1.3,3.7,3.3,3.3c1.1-0.2,2-1.1,2.2-2.2C33.9,19.3,32.1,17.6,30.1,18z
		 M30.7,22c-0.7,0-1.2-0.6-1.2-1.2s0.6-1.2,1.2-1.2s1.2,0.6,1.2,1.2S31.4,22,30.7,22z"/>
	<linearGradient id="SVGID_4_" gradientUnits="userSpaceOnUse" x1="34.0986" y1="34.7106" x2="41.8184" y2="34.7106">
		<stop  offset="0" style="stop-color:#B80FFF"/>
		<stop  offset="1" style="stop-color:#3C7CFF"/>
	</linearGradient>
	<path class="st4" d="M41.5,33.9h-2.8v-2.8c0-0.2-0.1-0.3-0.3-0.3h-1c-0.2,0-0.3,0.1-0.3,0.3v2.8h-2.8c-0.2,0-0.3,0.1-0.3,0.3v1
		c0,0.2,0.1,0.3,0.3,0.3h2.8v2.8c0,0.2,0.1,0.3,0.3,0.3h1c0.2,0,0.3-0.1,0.3-0.3v-2.8h2.8c0.2,0,0.3-0.1,0.3-0.3v-1
		C41.8,34,41.7,33.9,41.5,33.9z"/>
</g>
</svg>
