<svg xmlns="http://www.w3.org/2000/svg" xmlns:xlink="http://www.w3.org/1999/xlink" width="37" height="32" viewBox="0 0 37 32"><defs><path id="8fg6a" d="M154 970.32v20.48c0 .43-.2.83-.55 1.05a1 1 0 0 1-.53.15c-.19 0-.38-.07-.55-.18l-7.15-4.75-7.16 4.75a1 1 0 0 1-1.12 0l-7.15-4.75-7.15 4.75a1 1 0 0 1-1.1.02 1.23 1.23 0 0 1-.54-1.04V970.3c0-.41.2-.8.52-1.02l7.72-5.12a1 1 0 0 1 1.11 0l7.15 4.75 7.16-4.75a1 1 0 0 1 1.11 0l7.71 5.12c.33.21.53.6.52 1.03zm-25.41-2.86l-5.23 3.6v17.62l5.23-3.6zm7.73 21.16v-9.5l-.3.93a6.7 6.7 0 0 1-1.53-.71l.63-1c.4.26.8.44 1.2.58V971l-5.37-3.57v7.35c.3.16.62.35.9.55l-.69.95-.21-.15v8.92zm7.74-3.57v-7.96l-.14.15-.4.45-.88-.77.39-.45.63-.7.4.35v-8.7l-5.39 3.58v8.18c.17 0 .34-.02.5-.05l.18 1.16-.63.06h-.04v8.27zm7.59 3.57zm0 0v-17.63l-5.24-3.53v6.37l.59-.15.24 1.15c-.28.05-.56.14-.82.26v10zm-25.74-10.56l-1.12-.35.01-.06c.16-.48.32-.97.68-1.5l.97.66c-.26.38-.38.76-.52 1.19zm1.2-2.09l-.8-.85a4.15 4.15 0 0 1 1.53-.9l.37 1.1c-.18.05.08.05-.08.13-.2.1-.83.34-1.02.52zm14.5 1.99l.79.87c-.47.41-.93.72-1.41.95l-.52-1.05c.4-.18.76-.43 1.14-.77zm-7.64-.45l-.8.84c-.32-.3-.6-.62-.86-.93l-.21-.25.9-.76.22.26c.25.3.49.58.75.84zm13.87-2.26l.77-.75-.77-.75.84-.83.76.75.76-.75.84.83-.77.75.77.75-.84.83-.76-.76-.76.76z"/></defs><g><g transform="translate(-119 -962)"><use fill="#999999" xlink:href="#8fg6a"/></g></g></svg>
