<svg xmlns="http://www.w3.org/2000/svg" xmlns:xlink="http://www.w3.org/1999/xlink" width="32" height="32" viewBox="0 0 32 32"><defs><path id="tj4na" d="M370.97 975.51zM391 986.56c0 .9-.4 1.87-1.3 2.97a6.56 6.56 0 0 1-2.75 2.15c-.88.32-1.7.31-2.55.32-2.01-.02-4.67-1.2-7.44-3.2a37.23 37.23 0 0 1-6.07-5.15 34.8 34.8 0 0 1-6.15-8.35c-1.32-2.41-1.74-4.1-1.74-5.42a5.37 5.37 0 0 1 2.65-4.83l.12-.08c.49-.3 1.46-.96 2.71-.97 1.12 0 2.15.55 2.95 1.55l.08.1c.88 1.07 1.9 2.3 2.54 3.64.39.82.6 1.6.6 2.35 0 .81-.26 1.57-.74 2.23-.33.44-.55.78-.68 1.02-.14.24-.17.4-.17.42l.04.1c.03.05.08.14.16.24.15.2.4.48.68.8l.06.07c1.22 1.38 1.56 1.72 2.03 2.21l.27.28.14.15c.55.57.82.86 2.23 2.08l.09.08c.32.28.54.46.63.5l.03.02a4.16 4.16 0 0 0 .66-.28c.36-.2.82-.49 1.32-.81.44-.28.95-.4 1.5-.4 1.2 0 2.55.58 3.8 1.28 1.23.7 2.33 1.55 2.94 2.17.7.72 1.36 1.6 1.36 2.76zm-2.92 1.57c.63-.76.82-1.26.82-1.57a1 1 0 0 0-.18-.55c-.12-.2-.32-.41-.56-.66-.46-.47-1.42-1.2-2.44-1.8a6.61 6.61 0 0 0-2.8-1.02c-.2 0-.33.05-.38.08-.72.46-1.27.8-1.76 1.04-.48.24-.91.38-1.35.38-.42 0-.8-.13-1.12-.33-.32-.2-.6-.44-.9-.71h-.01l-.09-.08a30.55 30.55 0 0 1-2.35-2.21l-.14-.15-.27-.28c-.5-.5-.86-.88-2.1-2.28l-.06-.07c-.37-.42-.7-.78-.95-1.16a2.6 2.6 0 0 1-.47-1.25l-.01-.2c0-.44.13-.88.36-1.31.22-.44.53-.89.91-1.4.22-.31.31-.6.31-.96 0-.55-.26-1.26-.74-2.04a24.01 24.01 0 0 0-1.9-2.55l-.07-.1c-.48-.58-.89-.78-1.34-.78-.56 0-1.18.36-1.58.63l-.13.08a3.27 3.27 0 0 0-1.43 1.61c-.13.43-.23.86-.23 1.4 0 .93.3 2.24 1.47 4.36a32.7 32.7 0 0 0 5.8 7.87c2.4 2.44 3.4 3.2 5.8 4.92 1.22.88 2.42 1.59 3.5 2.07 1.08.47 2.03.72 2.71.72.8 0 1.37 0 1.88-.2.51-.2 1.06-.6 1.8-1.5z"/></defs><g><g transform="translate(-361 -962)"><use fill="#999999" xlink:href="#tj4na"/></g></g></svg>
