<svg xmlns="http://www.w3.org/2000/svg" xmlns:xlink="http://www.w3.org/1999/xlink" width="32" height="32" viewBox="0 0 32 32"><defs><path id="nbt1a" d="M627 978.5c0 7.98-6.52 14.5-14.5 14.5s-14.5-6.52-14.5-14.5c0-7.97 6.52-14.5 14.5-14.5s14.5 6.53 14.5 14.5zm-2.42 0c0-6.65-5.43-12.08-12.08-12.08a12.12 12.12 0 0 0-12.08 12.08c0 6.65 5.43 12.08 12.08 12.08s12.08-5.43 12.08-12.08zm-7.6 2.78c.47.48.47 1.2 0 1.7-.5.47-1.22.47-1.7 0l-2.18-2.18c-.24.12-.36.12-.6.12a2.42 2.42 0 0 1-2.42-2.42c0-.85.49-1.7 1.21-2.05v-7.62c0-.72.49-1.2 1.21-1.2.73 0 1.2.48 1.2 1.2v7.62c.73.36 1.22 1.2 1.22 2.05 0 .24-.12.36-.12.6zm-3.27-2.78c0-.73-.48-1.2-1.21-1.2s-1.2.47-1.2 1.2c0 .72.47 1.2 1.2 1.2.72 0 1.2-.48 1.2-1.2zm8.46-1.2a1.2 1.2 0 1 1 0 2.4 1.2 1.2 0 0 1 0-2.4zm-19.34 0a1.2 1.2 0 1 1 0 2.4 1.2 1.2 0 0 1 0-2.4zm16.56 6.88a1.2 1.2 0 1 1 0 2.42 1.2 1.2 0 0 1 0-2.42zM605.6 970.4a1.2 1.2 0 1 1 0 2.42 1.2 1.2 0 0 1 0-2.42zm6.89 16.56a1.2 1.2 0 1 1 0 2.41 1.2 1.2 0 0 1 0-2.41zm-6.89-2.78a1.2 1.2 0 1 1 0 2.42 1.2 1.2 0 0 1 0-2.42zm13.78-13.78a1.2 1.2 0 1 1 0 2.42 1.2 1.2 0 0 1 0-2.42z"/></defs><g><g transform="translate(-597 -962)"><use fill="#999999" xlink:href="#nbt1a"/></g></g></svg>
