<svg xmlns="http://www.w3.org/2000/svg" xmlns:xlink="http://www.w3.org/1999/xlink" width="39" height="34" viewBox="0 0 39 34"><defs><path id="hmvca" d="M104 894.77v21.95c0 .46-.23.89-.6 1.12-.17.1-.37.16-.57.16-.21 0-.42-.07-.6-.19l-7.81-5.09-7.81 5.1a1.1 1.1 0 0 1-1.22 0l-7.8-5.1-7.8 5.1c-.37.23-.83.23-1.2 0-.36-.23-.59-.65-.59-1.1v-21.96c0-.44.22-.87.57-1.1l8.42-5.48a1.1 1.1 0 0 1 1.21 0l7.8 5.09 7.8-5.1a1.1 1.1 0 0 1 1.22 0l8.42 5.5c.35.22.57.65.56 1.1zm-27.72-3.06l-5.7 3.86v18.88l5.7-3.86zm8.44 22.67V904.2l-.34 1a7.38 7.38 0 0 1-1.66-.77l.68-1.06c.44.27.88.47 1.32.62v-8.5l-5.87-3.82v7.88c.34.17.68.37.98.59l-.75 1.01-.23-.15v9.56zm8.44-3.83v-8.53l-.16.16-.43.49-.96-.83.42-.48.7-.76.42.38v-9.31l-5.87 3.83v8.77c.19-.01.36-.03.53-.06l.2 1.24-.68.07h-.04v8.86zm8.28 3.83l-.01-.01zm-.01-.01v-18.88l-5.7-3.79v6.83c.2-.06.42-.12.63-.16l.26 1.23c-.3.06-.6.15-.9.28v10.71zm-28.08-11.3l-1.22-.39.02-.06c.17-.52.34-1.04.74-1.6l1.06.7c-.3.42-.42.81-.57 1.27zm1.31-2.25l-.87-.91a4.52 4.52 0 0 1 1.68-.97l.4 1.19c-.2.05.09.04-.09.14-.22.1-.9.36-1.12.55zm15.83 2.14l.85.93c-.5.44-1 .77-1.53 1.02l-.57-1.13c.43-.2.83-.47 1.25-.82zm-8.34-.49l-.88.9c-.35-.31-.64-.66-.93-1l-.24-.27.98-.8.25.27c.28.32.53.63.82.9zm15.13-2.42l.84-.8-.84-.8.92-.9.82.81.83-.81.92.9-.84.8.84.8-.92.89-.83-.81-.82.81z"/></defs><g><g transform="translate(-67 -886)"><use fill="#fff" xlink:href="#hmvca"/></g></g></svg>