<?xml version="1.0" encoding="utf-8"?>
<!-- Generator: Adobe Illustrator 23.0.1, SVG Export Plug-In . SVG Version: 6.00 Build 0)  -->
<svg version="1.1" id="Like_" xmlns="http://www.w3.org/2000/svg" xmlns:xlink="http://www.w3.org/1999/xlink" x="0px" y="0px"
	 viewBox="0 0 50 50" style="enable-background:new 0 0 50 50;" xml:space="preserve">
<style type="text/css">
	.st0{fill:#fff;}
	.st1{fill:url(#SVGID_1_);}
	.st2{fill:url(#SVGID_2_);stroke:url(#SVGID_3_);stroke-width:0.4;stroke-miterlimit:10;}
</style>
<g>
	<circle id="circle" class="st0" cx="25" cy="25" r="24"/>
</g>
<g>
	
		<linearGradient id="SVGID_1_" gradientUnits="userSpaceOnUse" x1="0" y1="816.9999" x2="50" y2="816.9999" gradientTransform="matrix(1 0 0 1 0 -792)">
		<stop  offset="0" style="stop-color:#B80FFF"/>
		<stop  offset="1" style="stop-color:#3C7CFF"/>
	</linearGradient>
	<path class="st1" d="M25,1v1c6.4,0,12.1,2.6,16.3,6.7C45.4,12.9,48,18.6,48,25s-2.6,12.1-6.7,16.3C37.1,45.4,31.4,48,25,48
		s-12.1-2.6-16.3-6.7C4.6,37.1,2,31.4,2,25S4.6,12.9,8.7,8.7C12.9,4.6,18.6,2,25,2V1V0C11.2,0,0,11.2,0,25s11.2,25,25,25
		s25-11.2,25-25S38.8,0,25,0V1z"/>
</g>
<linearGradient id="SVGID_2_" gradientUnits="userSpaceOnUse" x1="10.9942" y1="24.4523" x2="39.9127" y2="24.4523">
	<stop  offset="0" style="stop-color:#B80FFF"/>
	<stop  offset="1" style="stop-color:#3C7CFF"/>
</linearGradient>
<linearGradient id="SVGID_3_" gradientUnits="userSpaceOnUse" x1="10.7942" y1="24.4523" x2="40.1127" y2="24.4523">
	<stop  offset="0" style="stop-color:#B80FFF"/>
	<stop  offset="1" style="stop-color:#3C7CFF"/>
</linearGradient>
<path class="st2" d="M39.8,14c-0.1-0.2-0.2-0.4-0.4-0.6l-2.9-2.9c-0.2-0.2-0.4-0.3-0.6-0.4C35.7,10,35.5,10,35.3,10s-0.5,0-0.7,0.1
	c-0.2,0.1-0.4,0.2-0.6,0.4l-2.1,2.1c0,0,0,0,0,0L29.5,15c0,0,0,0,0,0L15.1,29.5c0,0-0.1,0.1-0.1,0.1L12.6,34c0,0,0,0,0,0
	c0,0,0,0,0,0c0,0,0,0,0,0c0,0,0,0,0,0l0,0L11,38.4c-0.1,0.1,0,0.3,0.1,0.4c0.1,0.1,0.3,0.1,0.4,0.1l4.3-1.6c0,0,0,0,0,0c0,0,0,0,0,0
	c0,0,0,0,0,0c0,0,0,0,0,0l4.4-2.4c0,0,0.1,0,0.1-0.1l14.5-14.5c0,0,0,0,0,0l2.4-2.4c0,0,0,0,0,0c0,0,0,0,0,0l2.1-2.1
	c0.2-0.2,0.3-0.4,0.4-0.6c0.1-0.2,0.1-0.4,0.1-0.7C39.9,14.4,39.9,14.2,39.8,14z M29.8,15.9l1.1,1.1L17,30.8l-1.1-1.1L29.8,15.9z
	 M31.5,17.5l1,1L18.6,32.4l-1-1L31.5,17.5z M12.1,37.8l1.1-3l1.9,1.9L12.1,37.8z M15.9,36.4c-0.1-0.1-0.1-0.2-0.2-0.2l-1.9-1.9
	c-0.1-0.1-0.1-0.1-0.2-0.2l1.9-3.6l4,4L15.9,36.4z M20.1,34l-1-1l13.9-13.9l1,1L20.1,34z M34.6,19.5l-4.2-4.2l1.8-1.8l4.2,4.2
	L34.6,19.5z M39,15c0,0.1-0.1,0.2-0.2,0.3L37,17.1l-4.2-4.2l1.8-1.8c0.1-0.1,0.2-0.2,0.3-0.2c0.1,0,0.2-0.1,0.4-0.1
	c0.1,0,0.2,0,0.4,0.1c0.1,0,0.2,0.1,0.3,0.2l2.9,2.9c0.1,0.1,0.2,0.2,0.2,0.3c0,0.1,0.1,0.2,0.1,0.4C39.1,14.8,39.1,14.9,39,15z"/>
</svg>
