<?xml version="1.0" encoding="utf-8"?>
<!-- Generator: Adobe Illustrator 21.0.0, SVG Export Plug-In . SVG Version: 6.00 Build 0)  -->
<svg version="1.1" id="Like_" xmlns="http://www.w3.org/2000/svg" xmlns:xlink="http://www.w3.org/1999/xlink" x="0px" y="0px"
	 viewBox="0 0 50 50" style="enable-background:new 0 0 50 50;" xml:space="preserve">
<style type="text/css">
	.st0{fill:#fff;}
	.st1{fill:url(#SVGID_1_);}
	.st2{fill:url(#Form_6_1_);}
</style>
<g>
	<circle id="circle" class="st0" cx="25" cy="25" r="24"/>
</g>
<g>
	<linearGradient id="SVGID_1_" gradientUnits="userSpaceOnUse" x1="0" y1="25" x2="50" y2="25">
		<stop  offset="0" style="stop-color:#B80FFF"/>
		<stop  offset="1" style="stop-color:#3C7CFF"/>
	</linearGradient>
	<path class="st1" d="M25,1v1c6.4,0,12.1,2.6,16.3,6.7C45.4,12.9,48,18.6,48,25c0,6.4-2.6,12.1-6.7,16.3C37.1,45.4,31.4,48,25,48
		c-6.4,0-12.1-2.6-16.3-6.7C4.6,37.1,2,31.4,2,25c0-6.4,2.6-12.1,6.7-16.3C12.9,4.6,18.6,2,25,2V1V0C11.2,0,0,11.2,0,25
		c0,13.8,11.2,25,25,25c13.8,0,25-11.2,25-25C50,11.2,38.8,0,25,0V1z"/>
</g>
<linearGradient id="Form_6_1_" gradientUnits="userSpaceOnUse" x1="14.7143" y1="25.8578" x2="36.1398" y2="25.8578">
	<stop  offset="0" style="stop-color:#B80FFF"/>
	<stop  offset="1" style="stop-color:#3C7CFF"/>
</linearGradient>
<path id="Form_6" class="st2" d="M30.2,16.4c-1.2,0-2.3,0.3-3.3,0.9c-0.5,0.3-1,0.7-1.5,1.2c-0.4-0.5-0.9-0.9-1.5-1.2
	c-1-0.6-2.1-0.9-3.3-0.9c-3.3,0-5.9,2.6-5.9,5.9c0,0.9,0.2,1.8,0.5,2.7c0.7,1.6,1.7,2.9,3,4.1c1.5,1.5,3.6,3.3,6.5,5.6l0.7,0.6
	l0.4-0.4l0.3-0.3c2.8-2.1,5.4-4.4,7.8-7c0.7-0.8,1.2-1.7,1.7-2.6c0.3-0.9,0.5-1.8,0.5-2.7C36.1,19,33.5,16.4,30.2,16.4z M25.4,32.2
	c-2.4-1.8-4.6-3.8-6.6-6c-0.6-0.6-1-1.3-1.3-2c-0.3-0.6-0.4-1.3-0.4-1.9c0-0.9,0.4-1.8,1.1-2.5c0.7-0.7,1.6-1,2.5-1
	c0.8,0,1.5,0.2,2.2,0.6c0.6,0.4,1.1,0.9,1.5,1.4l0,0l1.1,1.2l1.1-1.2l0,0c0.4-0.5,0.9-1,1.5-1.4c0.6-0.4,1.4-0.7,2.2-0.6
	c0.9,0,1.9,0.4,2.5,1c0.7,0.7,1.1,1.6,1.1,2.5c0,0.7-0.1,1.3-0.4,1.9c-0.6,1.2-1.5,2.4-2.5,3.3C29.6,28.7,27.9,30.3,25.4,32.2z"/>
</svg>
