<?xml version="1.0" encoding="utf-8"?>
<!-- Generator: Adobe Illustrator 21.0.0, SVG Export Plug-In . SVG Version: 6.00 Build 0)  -->
<svg version="1.1" id="Like_" xmlns="http://www.w3.org/2000/svg" xmlns:xlink="http://www.w3.org/1999/xlink" x="0px" y="0px"
	 viewBox="0 0 50 50" style="enable-background:new 0 0 50 50;" xml:space="preserve">
<style type="text/css">
	.st0{fill:#fff;}
	.st1{fill:url(#SVGID_1_);}
	.st2{fill:url(#Form_4_1_);}
</style>
<g>
	<circle id="circle" class="st0" cx="25" cy="25" r="24"/>
</g>
<g>
	<linearGradient id="SVGID_1_" gradientUnits="userSpaceOnUse" x1="0" y1="25" x2="50" y2="25">
		<stop  offset="0" style="stop-color:#B80FFF"/>
		<stop  offset="1" style="stop-color:#3C7CFF"/>
	</linearGradient>
	<path class="st1" d="M25,1v1c6.4,0,12.1,2.6,16.3,6.7C45.4,12.9,48,18.6,48,25c0,6.4-2.6,12.1-6.7,16.3C37.1,45.4,31.4,48,25,48
		c-6.4,0-12.1-2.6-16.3-6.7C4.6,37.1,2,31.4,2,25c0-6.4,2.6-12.1,6.7-16.3C12.9,4.6,18.6,2,25,2V1V0C11.2,0,0,11.2,0,25
		c0,13.8,11.2,25,25,25c13.8,0,25-11.2,25-25C50,11.2,38.8,0,25,0V1z"/>
</g>
<linearGradient id="Form_4_1_" gradientUnits="userSpaceOnUse" x1="14.714" y1="25" x2="35.286" y2="25">
	<stop  offset="0" style="stop-color:#B80FFF"/>
	<stop  offset="1" style="stop-color:#3C7CFF"/>
</linearGradient>
<path id="Form_4" class="st2" d="M14.7,23.3l3.3,3.4v8.6l4-4.6l4.6,4.6l8.6-20.6L14.7,23.3z M17.8,23.9L30,18.8l-10.3,6.9L17.8,23.9
	z M19.8,31.9v-5.3L31,19L19.8,31.9z M26.1,32.3l-2.9-2.9l8-9.3L26.1,32.3z"/>
</svg>
