<svg xmlns="http://www.w3.org/2000/svg" xmlns:xlink="http://www.w3.org/1999/xlink" width="40" height="41" viewBox="0 0 40 41"><defs><path id="5d36a" d="M75.64 582.38a13.96 13.96 0 0 1-.44-3.35c0-3.04 1.2-5.8 3.16-7.8a10.66 10.66 0 0 1 15.28 0c1.95 2 3.16 4.76 3.16 7.8 0 1.1-.17 2.22-.45 3.34a23.9 23.9 0 0 1-1.13 3.37 44.66 44.66 0 0 1-3.35 6.34c-2.41 3.87-4.8 6.74-4.83 6.77L86 600.1l-1.04-1.25c-.02-.02-1.06-1.26-2.45-3.2a58.95 58.95 0 0 1-4.58-7.42c-.96-1.9-1.8-3.88-2.29-5.85zm2.3-3.35c0 1.6.5 3.54 1.33 5.53.81 2 1.93 4.03 3.06 5.86A66.3 66.3 0 0 0 86 595.7a56.66 56.66 0 0 0 5.64-8.79 25.6 25.6 0 0 0 2.05-5.24c.24-.95.37-1.85.37-2.65 0-2.27-.9-4.32-2.36-5.82a7.94 7.94 0 0 0-11.4 0 8.3 8.3 0 0 0-2.36 5.82zm4.08-.57a4.02 4.02 0 0 1 3.98-4.07c2.2 0 3.98 1.82 3.98 4.07a4.02 4.02 0 0 1-3.98 4.07 4.02 4.02 0 0 1-3.98-4.07zm21.98 21.7c0 3.23-8.06 5.84-18 5.84s-18-2.62-18-5.84c0-2.62 5.32-4.83 12.66-5.57.77 1.13 1.49 2.12 2.1 2.92-5.96.36-9.86 1.68-11.32 2.65 1.7 1.15 6.76 2.76 14.56 2.76 7.8 0 12.85-1.61 14.56-2.76-1.46-.98-5.36-2.29-11.32-2.65.6-.8 1.32-1.79 2.09-2.92 7.34.73 12.67 2.95 12.67 5.57z"/></defs><g><g transform="translate(-66 -566)"><use fill="#fff" xlink:href="#5d36a"/></g></g></svg>