<svg xmlns="http://www.w3.org/2000/svg" xmlns:xlink="http://www.w3.org/1999/xlink" width="36" height="37" viewBox="0 0 36 37"><defs><path id="myb3a" d="M710 129.61c0 .58-.21 1.16-.67 1.65-.46.5-1.15.92-2.14 1.27-1.91.7-4.97 1.15-9.72 1.3a3.49 3.49 0 0 1-6.94 0c-3.56-.1-6.17-.4-8.05-.81-1.94-.44-3.13-1.01-3.82-1.76a2.38 2.38 0 0 1-.65-1.65c-.01-.71.33-1.4 1.02-1.96 1.78-1.98 3.1-3.03 4.01-3.92.9-.9 1.4-1.6 1.7-3.09.2-.99.29-2.33.29-4.25 0-1.94.03-3.84.4-5.53a6.73 6.73 0 0 1 2.57-4.22 8.07 8.07 0 0 1 3.36-1.3 2.72 2.72 0 1 1 5.29 0c1.38.25 2.49.68 3.35 1.3a6.08 6.08 0 0 1 2.06 2.61c.87 2.04.91 4.55.91 7.14 0 1.93.1 3.27.29 4.26.2 1 .5 1.63.93 2.22.87 1.17 2.43 2.16 4.83 4.82.65.55.98 1.23.97 1.92zm-26.34-3.27a51.43 51.43 0 0 0-2.87 2.81l-.21.23-.02.03-.03.02a.82.82 0 0 0-.17.17l.1.14c.18.16.58.43 1.43.7 1.7.56 5.2 1.12 12.11 1.12 4.71 0 7.83-.26 9.88-.6 2.05-.34 3.03-.77 3.45-1.07.2-.14.28-.24.31-.28a.72.72 0 0 0-.15-.16l-.02-.01-.03-.03-.2-.23-.62-.64a52.22 52.22 0 0 0-2.28-2.2c-1.33-1.2-2.29-2.15-2.89-3.59-.6-1.43-.82-3.3-.82-6.36 0-1.67-.02-3.13-.2-4.34a5.8 5.8 0 0 0-1.1-2.88 3.9 3.9 0 0 0-1.56-1.14 9.8 9.8 0 0 0-3.77-.59 9.8 9.8 0 0 0-3.77.6c-.9.38-1.5.91-1.91 1.64-.85 1.45-.96 3.73-.95 6.7 0 3.08-.23 4.94-.82 6.38-.6 1.43-1.56 2.38-2.89 3.58zm10.73-21.62a.39.39 0 0 0-.77 0 .39.39 0 1 0 .77 0zm.7 29.16a84.74 84.74 0 0 1-2.19 0c.16.46.6.79 1.1.79.51 0 .94-.33 1.1-.79z"/></defs><g><g transform="translate(-676 -101)"><use fill="#fff" xlink:href="#myb3a"/></g></g></svg>