<svg xmlns="http://www.w3.org/2000/svg" xmlns:xlink="http://www.w3.org/1999/xlink" width="30" height="36" viewBox="0 0 30 36"><defs><path id="6a4ya" d="M71.02 755.1zm0 0zm25.8-7.25zm0 0zm2.18 6.64c0 .36-.02.58-.02.6l-.04.5-.33.35a19.02 19.02 0 0 1-7.9 5.13c-2.44.82-4.43.93-5.37.93a9.37 9.37 0 0 1-.68 0c-.94 0-2.94-.11-5.37-.93a19.02 19.02 0 0 1-7.9-5.13l-.33-.36-.01-.16-.03-.32c0-.04-.02-.25-.02-.6 0-.63.05-1.69.34-2.89.28-1.2.81-2.57 1.84-3.76a7 7 0 0 1 2.66-1.9l2-.95a9.89 9.89 0 0 1 .01-14.08 10.1 10.1 0 0 1 7.11-2.92h.01c2.78 0 5.3 1.12 7.12 2.92a9.89 9.89 0 0 1 .03 14.06l2.04.96a7 7 0 0 1 2.66 1.9c.69.8 1.15 1.68 1.47 2.53.63 1.7.7 3.3.7 4.12zm-9.2 3.92a16.1 16.1 0 0 0 6.36-4c0-.5-.06-1.3-.26-2.15a6.1 6.1 0 0 0-1.23-2.58 4.15 4.15 0 0 0-1.64-1.16l-.04-.02-3.5-1.64a10.11 10.11 0 0 1-9.03.02l-3.45 1.62-.04.02c-.7.28-1.21.67-1.64 1.16a5.45 5.45 0 0 0-.95 1.66 9.38 9.38 0 0 0-.54 3.07 16.11 16.11 0 0 0 6.37 4c1.91.64 3.5.76 4.3.78v-.01h.99a14.6 14.6 0 0 0 4.3-.77zm-12.06-20.45a7.24 7.24 0 0 0 7.23 7.15c2 0 3.8-.79 5.11-2.09a7.09 7.09 0 0 0 0-10.11 7.24 7.24 0 0 0-5.11-2.1c-2 0-3.8.8-5.11 2.1a7.09 7.09 0 0 0-2.12 5.05z"/></defs><g><g transform="translate(-70 -727)"><use fill="#fff" xlink:href="#6a4ya"/></g></g></svg>