<?xml version="1.0" encoding="utf-8"?>
<!-- Generator: Adobe Illustrator 23.0.3, SVG Export Plug-In . SVG Version: 6.00 Build 0)  -->
<svg version="1.1" id="Like_" xmlns="http://www.w3.org/2000/svg" xmlns:xlink="http://www.w3.org/1999/xlink" x="0px" y="0px"
	 viewBox="0 0 50 50" style="enable-background:new 0 0 50 50;" xml:space="preserve">
<style type="text/css">
	.st0{fill:#fff;}
	.st1{fill:url(#SVGID_1_);}
	.st2{fill:url(#SVGID_2_);}
</style>
<g>
	<circle id="circle" class="st0" cx="25" cy="25" r="24"/>
</g>
<g>
	
		<linearGradient id="SVGID_1_" gradientUnits="userSpaceOnUse" x1="0" y1="-764.9998" x2="50" y2="-764.9998" gradientTransform="matrix(1 0 0 -1 0 -740)">
		<stop  offset="0" style="stop-color:#B80FFF"/>
		<stop  offset="1" style="stop-color:#3C7CFF"/>
	</linearGradient>
	<path class="st1" d="M25,1v1c6.4,0,12.1,2.6,16.3,6.7C45.4,12.9,48,18.6,48,25s-2.6,12.1-6.7,16.3C37.1,45.4,31.4,48,25,48
		s-12.1-2.6-16.3-6.7C4.6,37.1,2,31.4,2,25S4.6,12.9,8.7,8.7C12.9,4.6,18.6,2,25,2V1V0C11.2,0,0,11.2,0,25s11.2,25,25,25
		s25-11.2,25-25S38.8,0,25,0V1z"/>
</g>
<linearGradient id="SVGID_2_" gradientUnits="userSpaceOnUse" x1="13.6023" y1="24.9998" x2="36.3977" y2="24.9998">
	<stop  offset="0" style="stop-color:#B80FFF"/>
	<stop  offset="1" style="stop-color:#3C7CFF"/>
</linearGradient>
<path class="st2" d="M29.5,23.4c1-0.8,2.2-1.8,3.1-3.5c1.1-2,1.4-4.3,1.5-5.5h1c0.7,0,1.3-0.6,1.3-1.3v-2.3c0-0.7-0.6-1.3-1.3-1.3
	H14.9c-0.7,0-1.3,0.6-1.3,1.3v2.3c0,0.7,0.6,1.3,1.3,1.3h1c0.1,1.2,0.3,3.5,1.5,5.5c1,1.7,2.2,2.7,3.1,3.5c0.9,0.7,1.3,1.1,1.3,1.6
	c0,0.4-0.3,0.7-1.3,1.3c-0.9,0.6-2.2,1.3-3.1,2.8c-1.4,2.2-1.6,5-1.6,6.5h-1c-0.7,0-1.3,0.6-1.3,1.3v2.3c0,0.7,0.6,1.3,1.3,1.3h20.2
	c0.7,0,1.3-0.6,1.3-1.3v-2.3c0-0.7-0.6-1.3-1.3-1.3h-0.9c0-1.5-0.1-4.3-1.6-6.5c-1-1.5-2.2-2.3-3.1-2.8c-1-0.6-1.3-0.8-1.3-1.3
	C28.1,24.5,28.6,24.1,29.5,23.4z M15.3,11.2h19.4v1.5H15.3V11.2z M34.7,38.8H15.3v-1.5h19.4V38.8z M19.8,35.6
	c0.1-0.1,0.2-0.2,0.3-0.2l4.9-1.3l4.8,1.3c0.1,0.1,0.2,0.1,0.4,0.2H19.8z M26.4,25c0,1.4,1.1,2.1,2.1,2.7c0.9,0.5,1.8,1.2,2.6,2.3
	c1.2,1.8,1.3,4.3,1.3,5.6h-0.3c-0.3-0.8-0.9-1.5-1.8-1.8l-5.1-1.3c-0.1,0-0.3,0-0.4,0l-5.2,1.4c-0.8,0.3-1.4,1-1.7,1.8h-0.3
	c0-1.2,0.1-3.8,1.3-5.6c0.8-1.2,1.8-1.8,2.6-2.3c1-0.6,2.1-1.3,2.1-2.7c0-1.3-1-2.1-2-2.9c-0.9-0.7-1.9-1.6-2.7-3
	c-0.9-1.7-1.2-3.6-1.2-4.7h14.7c-0.1,1.1-0.3,3-1.3,4.7c-0.8,1.4-1.8,2.3-2.7,3C27.4,22.9,26.4,23.7,26.4,25z"/>
</svg>
