<svg xmlns="http://www.w3.org/2000/svg" xmlns:xlink="http://www.w3.org/1999/xlink" width="28" height="38" viewBox="0 0 28 38"><defs><path id="fscfa" d="M710 114.3c0 3.39-1.35 6.46-3.51 8.68-.63.65-1.34 1.22-2.1 1.7l.81 1.81 3.35 7.33a1.56 1.56 0 0 1-.72 2.04 1.5 1.5 0 0 1-1.99-.74l-3.35-7.33-.8-1.8a11.83 11.83 0 0 1-12.17-3 12.41 12.41 0 0 1-3.52-8.7c0-3.39 1.34-6.47 3.51-8.69a11.83 11.83 0 0 1 16.97 0 12.41 12.41 0 0 1 3.52 8.69zm-2.99 0c0-2.56-1-4.86-2.64-6.54a8.87 8.87 0 0 0-12.74 0 9.3 9.3 0 0 0-2.64 6.53c0 2.56 1 4.85 2.64 6.53a8.87 8.87 0 0 0 12.74 0 9.3 9.3 0 0 0 2.64-6.53zm-17.5 8.68zm0 0z"/></defs><g><g transform="translate(-684 -100)"><use fill="#fff" xlink:href="#fscfa"/></g></g></svg>