<svg xmlns="http://www.w3.org/2000/svg" xmlns:xlink="http://www.w3.org/1999/xlink" width="39" height="38" viewBox="0 0 39 38"><defs><path id="h3bia" d="M102.24 1064.77l-.02.02c-.5.5-1.17.78-1.88.78H98.1c-.22.67-.49 1.33-.81 1.96l1.58 1.59a2.65 2.65 0 0 1 0 3.75l-2 2c-.5.52-1.2.76-1.88.76-.67 0-1.36-.24-1.87-.76l-1.59-1.58c-.63.32-1.28.6-1.96.81v2.24c0 1.47-1.19 2.66-2.66 2.66H84.1a2.66 2.66 0 0 1-2.66-2.66v-2.24c-.68-.22-1.33-.49-1.96-.81l-1.59 1.58c-.51.52-1.2.76-1.88.76-.67 0-1.36-.25-1.88-.76l-2-2a2.65 2.65 0 0 1 0-3.75l1.59-1.59c-.32-.63-.6-1.28-.81-1.96h-2.24a2.66 2.66 0 0 1-2.66-2.66v-2.83a2.65 2.65 0 0 1 2.66-2.66h2.24c.22-.67.49-1.32.81-1.95l-1.58-1.59a2.65 2.65 0 0 1 0-3.76l2-2c.5-.5 1.2-.75 1.88-.75.67 0 1.36.24 1.87.75l1.59 1.59c.63-.32 1.28-.6 1.96-.81v-2.24c0-1.47 1.19-2.66 2.66-2.66h2.82c1.47 0 2.66 1.19 2.66 2.66v2.24c.68.21 1.33.49 1.96.8l1.59-1.58c.5-.5 1.2-.75 1.88-.75.67 0 1.36.24 1.87.75l2 2a2.64 2.64 0 0 1 0 3.76l-1.58 1.59c.32.63.6 1.28.81 1.96h2.24c1.47 0 2.66 1.19 2.66 2.65v2.83c0 .7-.28 1.38-.78 1.88zm-5.07-1.69h3.17c.05 0 .09-.02.12-.05a.16.16 0 0 0 .05-.12v-2.83a.17.17 0 0 0-.05-.11.17.17 0 0 0-.12-.05h-3.17c-.58 0-1.08-.4-1.21-.96a10.67 10.67 0 0 0-1.27-3.06 1.24 1.24 0 0 1 .18-1.53l2.24-2.25a.18.18 0 0 0 .05-.12c0-.04-.02-.09-.05-.12l-2-2a.17.17 0 0 0-.12-.04c-.05 0-.1.02-.12.04l-2.24 2.25a1.24 1.24 0 0 1-1.53.18c-.95-.58-1.98-1-3.07-1.27a1.24 1.24 0 0 1-.95-1.2v-3.18a.17.17 0 0 0-.05-.12.17.17 0 0 0-.12-.05H84.1a.17.17 0 0 0-.12.05.17.17 0 0 0-.05.12v3.17c0 .58-.4 1.08-.95 1.21-1.09.26-2.12.69-3.07 1.27a1.25 1.25 0 0 1-1.53-.18l-2.24-2.24a.17.17 0 0 0-.13-.05c-.05 0-.1.02-.12.04l-2 2a.17.17 0 0 0-.04.12c0 .05.01.09.05.12l2.24 2.25a1.24 1.24 0 0 1 .18 1.53c-.58.95-1 1.98-1.27 3.06-.13.56-.63.96-1.2.96h-3.18a.17.17 0 0 0-.12.05.16.16 0 0 0-.05.11v2.83c0 .1.08.17.17.17h3.17c.58 0 1.08.4 1.21.96.26 1.08.7 2.1 1.27 3.06a1.24 1.24 0 0 1-.18 1.53l-2.24 2.25a.18.18 0 0 0-.05.12c0 .04.02.09.05.12l2 2c.01.02.06.04.11.04.06 0 .1-.02.13-.05l2.24-2.24a1.24 1.24 0 0 1 1.53-.19c.95.59 1.98 1.01 3.07 1.28.55.13.95.63.95 1.2v3.18c0 .05.02.09.05.12.03.03.07.05.12.05h2.82c.05 0 .09-.02.12-.05a.17.17 0 0 0 .05-.12v-3.17c0-.58.4-1.08.95-1.21 1.09-.27 2.12-.7 3.07-1.28a1.24 1.24 0 0 1 1.53.19l2.24 2.24c.02.02.07.05.13.04.05 0 .1-.02.12-.04l2-2a.17.17 0 0 0 .04-.12.17.17 0 0 0-.05-.12l-2.24-2.24a1.24 1.24 0 0 1-.18-1.53c.58-.95 1-1.98 1.27-3.07.13-.56.63-.95 1.2-.95zm-18.8 7.79zm14.73-9.37a7.61 7.61 0 1 1-15.22-.02 7.61 7.61 0 0 1 15.22.02zm-3.98 3.62a5.1 5.1 0 0 0-3.62-8.74 5.1 5.1 0 0 0-5.12 5.12 5.1 5.1 0 0 0 5.12 5.12 5.1 5.1 0 0 0 3.62-1.5z"/></defs><g><g transform="translate(-66 -1042)"><use fill="#fff" xlink:href="#h3bia"/></g></g></svg>