<?xml version="1.0" encoding="utf-8"?>
<!-- Generator: Adobe Illustrator 23.0.1, SVG Export Plug-In . SVG Version: 6.00 Build 0)  -->
<svg version="1.1" id="Like_" xmlns="http://www.w3.org/2000/svg" xmlns:xlink="http://www.w3.org/1999/xlink" x="0px" y="0px"
	 viewBox="0 0 50 50" style="enable-background:new 0 0 50 50;" xml:space="preserve">
<style type="text/css">
	.st0{fill:#fff;}
	.st1{fill:url(#SVGID_1_);}
	.st2{fill:url(#SVGID_2_);}
	.st3{fill:url(#SVGID_3_);}
	.st4{fill:url(#SVGID_4_);}
	.st5{fill:url(#SVGID_5_);}
</style>
<g>
	<circle id="circle" class="st0" cx="25" cy="25" r="24"/>
</g>
<g>
	
		<linearGradient id="SVGID_1_" gradientUnits="userSpaceOnUse" x1="0" y1="24.8898" x2="50" y2="24.8898" gradientTransform="matrix(1 0 0 -1 0 49.8898)">
		<stop  offset="0" style="stop-color:#B80FFF"/>
		<stop  offset="1" style="stop-color:#3C7CFF"/>
	</linearGradient>
	<path class="st1" d="M25,1v1c6.4,0,12.1,2.6,16.3,6.7C45.4,12.9,48,18.6,48,25s-2.6,12.1-6.7,16.3C37.1,45.4,31.4,48,25,48
		s-12.1-2.6-16.3-6.7C4.6,37.1,2,31.4,2,25S4.6,12.9,8.7,8.7C12.9,4.6,18.6,2,25,2V1V0C11.2,0,0,11.2,0,25s11.2,25,25,25
		s25-11.2,25-25S38.8,0,25,0V1z"/>
</g>
<g>
	<linearGradient id="SVGID_2_" gradientUnits="userSpaceOnUse" x1="34.5986" y1="34.7006" x2="42.3184" y2="34.7006">
		<stop  offset="0" style="stop-color:#B80FFF"/>
		<stop  offset="1" style="stop-color:#3C7CFF"/>
	</linearGradient>
	<path class="st2" d="M42,33.9h-2.8v-2.8c0-0.2-0.1-0.3-0.3-0.3h-1c-0.2,0-0.3,0.1-0.3,0.3v2.8h-2.8c-0.2,0-0.3,0.1-0.3,0.3v1
		c0,0.2,0.1,0.3,0.3,0.3h2.8v2.8c0,0.2,0.1,0.3,0.3,0.3h1c0.2,0,0.3-0.1,0.3-0.3v-2.8H42c0.2,0,0.3-0.1,0.3-0.3v-1
		C42.3,34,42.2,33.9,42,33.9z"/>
</g>
<g>
	<linearGradient id="SVGID_3_" gradientUnits="userSpaceOnUse" x1="17.6938" y1="25.5443" x2="31.968" y2="25.5443">
		<stop  offset="0" style="stop-color:#B80FFF"/>
		<stop  offset="1" style="stop-color:#3C7CFF"/>
	</linearGradient>
	<path class="st3" d="M24.8,18.4c-3.9,0-7.1,3.2-7.1,7.1s3.2,7.1,7.1,7.1s7.1-3.2,7.1-7.1S28.8,18.4,24.8,18.4z M24.8,31.3
		c-3.1,0-5.7-2.6-5.7-5.7c0-3.1,2.6-5.7,5.7-5.7c3.1,0,5.7,2.6,5.7,5.7C30.5,28.7,28,31.3,24.8,31.3z"/>
	<linearGradient id="SVGID_4_" gradientUnits="userSpaceOnUse" x1="10.5567" y1="24.1168" x2="39.1051" y2="24.1168">
		<stop  offset="0" style="stop-color:#B80FFF"/>
		<stop  offset="1" style="stop-color:#3C7CFF"/>
	</linearGradient>
	<path class="st4" d="M12.7,34.1c-0.4,0-0.7-0.3-0.7-0.7V17.7c0-0.4,0.3-0.7,0.7-0.7H17h2.9c0.3,0,0.5-0.2,0.6-0.4l1.2-2.5H28
		l1.2,2.5c0.1,0.2,0.4,0.4,0.6,0.4H37c0.4,0,0.7,0.3,0.7,0.7v10.7h1.4V17.7c0-1.2-1-2.1-2.1-2.1h-6.7L29,13.1
		c-0.1-0.2-0.4-0.4-0.6-0.4h-7.1c-0.3,0-0.5,0.2-0.6,0.4l-1.2,2.5h-1.7v-2.1c0-0.4-0.3-0.7-0.7-0.7h-4.3c-0.4,0-0.7,0.3-0.7,0.7v2.3
		c-0.8,0.3-1.4,1.1-1.4,2v15.7c0,1.2,1,2.1,2.1,2.1H32v-1.4H12.7z M13.4,14.1h2.9v1.4h-2.9V14.1z"/>
	<linearGradient id="SVGID_5_" gradientUnits="userSpaceOnUse" x1="31.968" y1="20.5483" x2="36.2503" y2="20.5483">
		<stop  offset="0" style="stop-color:#B80FFF"/>
		<stop  offset="1" style="stop-color:#3C7CFF"/>
	</linearGradient>
	<path class="st5" d="M35.5,18.4h-2.9c-0.4,0-0.7,0.3-0.7,0.7V22c0,0.4,0.3,0.7,0.7,0.7h2.9c0.4,0,0.7-0.3,0.7-0.7v-2.9
		C36.3,18.7,35.9,18.4,35.5,18.4z M34.8,21.3h-1.4v-1.4h1.4V21.3z"/>
</g>
</svg>
