<svg xmlns="http://www.w3.org/2000/svg" xmlns:xlink="http://www.w3.org/1999/xlink" width="50" height="51" viewBox="0 0 50 51"><defs><path id="8cdra" d="M546 609a24 24 0 1 1 0 48 24 24 0 0 1 0-48z"/><path id="8cdrd" d="M557.14 630.3c0 .94-.14 1.83-.49 2.7a9.57 9.57 0 0 1-1.65 2.65c-1.54 1.82-3.99 3.91-7.83 7l-.33.28-.41.36-.75-.65a89.14 89.14 0 0 1-6.5-5.56c-1.51-1.5-2.46-2.76-2.98-4.07a7.21 7.21 0 0 1-.48-2.71 5.91 5.91 0 0 1 5.94-5.87c1.35 0 2.44.38 3.29.91.6.37 1.08.8 1.48 1.2.4-.4.88-.83 1.48-1.2a6.14 6.14 0 0 1 3.28-.91c3.3 0 5.95 2.65 5.95 5.87zm-5.22 5.2c1.34-1.32 2.1-2.34 2.5-3.28.25-.63.36-1.23.36-1.92a3.6 3.6 0 0 0-3.58-3.54c-.93 0-1.6.26-2.18.64-.58.38-1.05.9-1.48 1.4l-1.11 1.24-1.11-1.24c-.44-.5-.91-1.02-1.49-1.4a3.78 3.78 0 0 0-4.7.4 3.5 3.5 0 0 0-1.05 2.5c0 .7.1 1.3.36 1.92.26.63.68 1.28 1.34 2.05 1.25 1.47 3.36 3.3 6.65 5.96a83.08 83.08 0 0 0 5.49-4.74z"/><linearGradient id="8cdrb" x1="522" x2="570" y1="633" y2="633" gradientUnits="userSpaceOnUse"><stop offset="0" stop-color="#b80fff"/><stop offset="1" stop-color="#3c7cff"/></linearGradient><clipPath id="8cdrc"><use fill="#fff" xlink:href="#8cdra"/></clipPath><linearGradient id="8cdre" x1="535.72" x2="556.72" y1="634.29" y2="633.43" gradientUnits="userSpaceOnUse"><stop offset="0" stop-color="#b80fff"/><stop offset="1" stop-color="#3c7cff"/></linearGradient></defs><g><g transform="translate(-521 -607)"><use fill="url(#8cdrb)" xlink:href="#8cdra"/><use fill="#fff" fill-opacity="0" stroke="#999" stroke-miterlimit="50" stroke-width="4" clip-path="url(&quot;#8cdrc&quot;)" xlink:href="#8cdra"/></g><g transform="translate(-521 -607)"><use xlink:href="#8cdrd"/><use fill="url(#8cdre)" xlink:href="#8cdrd"/></g></g></svg>